%TF.GenerationSoftware,KiCad,Pcbnew,7.0.5-1.fc38*%
%TF.CreationDate,2023-06-27T12:48:17+03:00*%
%TF.ProjectId,flip-flop-NE555-timer,666c6970-2d66-46c6-9f70-2d4e45353535,1.0*%
%TF.SameCoordinates,Original*%
%TF.FileFunction,Legend,Bot*%
%TF.FilePolarity,Positive*%
%FSLAX46Y46*%
G04 Gerber Fmt 4.6, Leading zero omitted, Abs format (unit mm)*
G04 Created by KiCad (PCBNEW 7.0.5-1.fc38) date 2023-06-27 12:48:17*
%MOMM*%
%LPD*%
G01*
G04 APERTURE LIST*
%ADD10C,0.187500*%
G04 APERTURE END LIST*
D10*
X141876645Y-86684178D02*
X141876645Y-87898464D01*
X141876645Y-87898464D02*
X141948073Y-88041321D01*
X141948073Y-88041321D02*
X142019502Y-88112750D01*
X142019502Y-88112750D02*
X142162359Y-88184178D01*
X142162359Y-88184178D02*
X142376645Y-88184178D01*
X142376645Y-88184178D02*
X142519502Y-88112750D01*
X141876645Y-87612750D02*
X142019502Y-87684178D01*
X142019502Y-87684178D02*
X142305216Y-87684178D01*
X142305216Y-87684178D02*
X142448073Y-87612750D01*
X142448073Y-87612750D02*
X142519502Y-87541321D01*
X142519502Y-87541321D02*
X142590930Y-87398464D01*
X142590930Y-87398464D02*
X142590930Y-86969892D01*
X142590930Y-86969892D02*
X142519502Y-86827035D01*
X142519502Y-86827035D02*
X142448073Y-86755607D01*
X142448073Y-86755607D02*
X142305216Y-86684178D01*
X142305216Y-86684178D02*
X142019502Y-86684178D01*
X142019502Y-86684178D02*
X141876645Y-86755607D01*
X141162359Y-87684178D02*
X141162359Y-86684178D01*
X141162359Y-86184178D02*
X141233787Y-86255607D01*
X141233787Y-86255607D02*
X141162359Y-86327035D01*
X141162359Y-86327035D02*
X141090930Y-86255607D01*
X141090930Y-86255607D02*
X141162359Y-86184178D01*
X141162359Y-86184178D02*
X141162359Y-86327035D01*
X140662358Y-86684178D02*
X140090930Y-86684178D01*
X140448073Y-86184178D02*
X140448073Y-87469892D01*
X140448073Y-87469892D02*
X140376644Y-87612750D01*
X140376644Y-87612750D02*
X140233787Y-87684178D01*
X140233787Y-87684178D02*
X140090930Y-87684178D01*
X139590930Y-87684178D02*
X139590930Y-86184178D01*
X138948073Y-87684178D02*
X138948073Y-86898464D01*
X138948073Y-86898464D02*
X139019501Y-86755607D01*
X139019501Y-86755607D02*
X139162358Y-86684178D01*
X139162358Y-86684178D02*
X139376644Y-86684178D01*
X139376644Y-86684178D02*
X139519501Y-86755607D01*
X139519501Y-86755607D02*
X139590930Y-86827035D01*
X137590930Y-86684178D02*
X137590930Y-87684178D01*
X138233787Y-86684178D02*
X138233787Y-87469892D01*
X138233787Y-87469892D02*
X138162358Y-87612750D01*
X138162358Y-87612750D02*
X138019501Y-87684178D01*
X138019501Y-87684178D02*
X137805215Y-87684178D01*
X137805215Y-87684178D02*
X137662358Y-87612750D01*
X137662358Y-87612750D02*
X137590930Y-87541321D01*
X136876644Y-87684178D02*
X136876644Y-86184178D01*
X136876644Y-86755607D02*
X136733787Y-86684178D01*
X136733787Y-86684178D02*
X136448072Y-86684178D01*
X136448072Y-86684178D02*
X136305215Y-86755607D01*
X136305215Y-86755607D02*
X136233787Y-86827035D01*
X136233787Y-86827035D02*
X136162358Y-86969892D01*
X136162358Y-86969892D02*
X136162358Y-87398464D01*
X136162358Y-87398464D02*
X136233787Y-87541321D01*
X136233787Y-87541321D02*
X136305215Y-87612750D01*
X136305215Y-87612750D02*
X136448072Y-87684178D01*
X136448072Y-87684178D02*
X136733787Y-87684178D01*
X136733787Y-87684178D02*
X136876644Y-87612750D01*
X135519501Y-87541321D02*
X135448072Y-87612750D01*
X135448072Y-87612750D02*
X135519501Y-87684178D01*
X135519501Y-87684178D02*
X135590929Y-87612750D01*
X135590929Y-87612750D02*
X135519501Y-87541321D01*
X135519501Y-87541321D02*
X135519501Y-87684178D01*
X134162358Y-87612750D02*
X134305215Y-87684178D01*
X134305215Y-87684178D02*
X134590929Y-87684178D01*
X134590929Y-87684178D02*
X134733786Y-87612750D01*
X134733786Y-87612750D02*
X134805215Y-87541321D01*
X134805215Y-87541321D02*
X134876643Y-87398464D01*
X134876643Y-87398464D02*
X134876643Y-86969892D01*
X134876643Y-86969892D02*
X134805215Y-86827035D01*
X134805215Y-86827035D02*
X134733786Y-86755607D01*
X134733786Y-86755607D02*
X134590929Y-86684178D01*
X134590929Y-86684178D02*
X134305215Y-86684178D01*
X134305215Y-86684178D02*
X134162358Y-86755607D01*
X133305215Y-87684178D02*
X133448072Y-87612750D01*
X133448072Y-87612750D02*
X133519501Y-87541321D01*
X133519501Y-87541321D02*
X133590929Y-87398464D01*
X133590929Y-87398464D02*
X133590929Y-86969892D01*
X133590929Y-86969892D02*
X133519501Y-86827035D01*
X133519501Y-86827035D02*
X133448072Y-86755607D01*
X133448072Y-86755607D02*
X133305215Y-86684178D01*
X133305215Y-86684178D02*
X133090929Y-86684178D01*
X133090929Y-86684178D02*
X132948072Y-86755607D01*
X132948072Y-86755607D02*
X132876644Y-86827035D01*
X132876644Y-86827035D02*
X132805215Y-86969892D01*
X132805215Y-86969892D02*
X132805215Y-87398464D01*
X132805215Y-87398464D02*
X132876644Y-87541321D01*
X132876644Y-87541321D02*
X132948072Y-87612750D01*
X132948072Y-87612750D02*
X133090929Y-87684178D01*
X133090929Y-87684178D02*
X133305215Y-87684178D01*
X132162358Y-87684178D02*
X132162358Y-86684178D01*
X132162358Y-86827035D02*
X132090929Y-86755607D01*
X132090929Y-86755607D02*
X131948072Y-86684178D01*
X131948072Y-86684178D02*
X131733786Y-86684178D01*
X131733786Y-86684178D02*
X131590929Y-86755607D01*
X131590929Y-86755607D02*
X131519501Y-86898464D01*
X131519501Y-86898464D02*
X131519501Y-87684178D01*
X131519501Y-86898464D02*
X131448072Y-86755607D01*
X131448072Y-86755607D02*
X131305215Y-86684178D01*
X131305215Y-86684178D02*
X131090929Y-86684178D01*
X131090929Y-86684178D02*
X130948072Y-86755607D01*
X130948072Y-86755607D02*
X130876643Y-86898464D01*
X130876643Y-86898464D02*
X130876643Y-87684178D01*
X129090929Y-86112750D02*
X130376643Y-88041321D01*
X127948072Y-87684178D02*
X127948072Y-86898464D01*
X127948072Y-86898464D02*
X128019500Y-86755607D01*
X128019500Y-86755607D02*
X128162357Y-86684178D01*
X128162357Y-86684178D02*
X128448072Y-86684178D01*
X128448072Y-86684178D02*
X128590929Y-86755607D01*
X127948072Y-87612750D02*
X128090929Y-87684178D01*
X128090929Y-87684178D02*
X128448072Y-87684178D01*
X128448072Y-87684178D02*
X128590929Y-87612750D01*
X128590929Y-87612750D02*
X128662357Y-87469892D01*
X128662357Y-87469892D02*
X128662357Y-87327035D01*
X128662357Y-87327035D02*
X128590929Y-87184178D01*
X128590929Y-87184178D02*
X128448072Y-87112750D01*
X128448072Y-87112750D02*
X128090929Y-87112750D01*
X128090929Y-87112750D02*
X127948072Y-87041321D01*
X127233786Y-86684178D02*
X127233786Y-87684178D01*
X127233786Y-86827035D02*
X127162357Y-86755607D01*
X127162357Y-86755607D02*
X127019500Y-86684178D01*
X127019500Y-86684178D02*
X126805214Y-86684178D01*
X126805214Y-86684178D02*
X126662357Y-86755607D01*
X126662357Y-86755607D02*
X126590929Y-86898464D01*
X126590929Y-86898464D02*
X126590929Y-87684178D01*
X125876643Y-87684178D02*
X125876643Y-86684178D01*
X125876643Y-86184178D02*
X125948071Y-86255607D01*
X125948071Y-86255607D02*
X125876643Y-86327035D01*
X125876643Y-86327035D02*
X125805214Y-86255607D01*
X125805214Y-86255607D02*
X125876643Y-86184178D01*
X125876643Y-86184178D02*
X125876643Y-86327035D01*
X124948071Y-87684178D02*
X125090928Y-87612750D01*
X125090928Y-87612750D02*
X125162357Y-87469892D01*
X125162357Y-87469892D02*
X125162357Y-86184178D01*
X124519500Y-86684178D02*
X124162357Y-87684178D01*
X124162357Y-87684178D02*
X123805214Y-86684178D01*
X123019500Y-86827035D02*
X123162357Y-86755607D01*
X123162357Y-86755607D02*
X123233786Y-86684178D01*
X123233786Y-86684178D02*
X123305214Y-86541321D01*
X123305214Y-86541321D02*
X123305214Y-86469892D01*
X123305214Y-86469892D02*
X123233786Y-86327035D01*
X123233786Y-86327035D02*
X123162357Y-86255607D01*
X123162357Y-86255607D02*
X123019500Y-86184178D01*
X123019500Y-86184178D02*
X122733786Y-86184178D01*
X122733786Y-86184178D02*
X122590929Y-86255607D01*
X122590929Y-86255607D02*
X122519500Y-86327035D01*
X122519500Y-86327035D02*
X122448071Y-86469892D01*
X122448071Y-86469892D02*
X122448071Y-86541321D01*
X122448071Y-86541321D02*
X122519500Y-86684178D01*
X122519500Y-86684178D02*
X122590929Y-86755607D01*
X122590929Y-86755607D02*
X122733786Y-86827035D01*
X122733786Y-86827035D02*
X123019500Y-86827035D01*
X123019500Y-86827035D02*
X123162357Y-86898464D01*
X123162357Y-86898464D02*
X123233786Y-86969892D01*
X123233786Y-86969892D02*
X123305214Y-87112750D01*
X123305214Y-87112750D02*
X123305214Y-87398464D01*
X123305214Y-87398464D02*
X123233786Y-87541321D01*
X123233786Y-87541321D02*
X123162357Y-87612750D01*
X123162357Y-87612750D02*
X123019500Y-87684178D01*
X123019500Y-87684178D02*
X122733786Y-87684178D01*
X122733786Y-87684178D02*
X122590929Y-87612750D01*
X122590929Y-87612750D02*
X122519500Y-87541321D01*
X122519500Y-87541321D02*
X122448071Y-87398464D01*
X122448071Y-87398464D02*
X122448071Y-87112750D01*
X122448071Y-87112750D02*
X122519500Y-86969892D01*
X122519500Y-86969892D02*
X122590929Y-86898464D01*
X122590929Y-86898464D02*
X122733786Y-86827035D01*
M02*
