M48
; DRILL file {KiCad 7.0.5-1.fc38} date Sal 27 Haz 2023 12:48:12
; FORMAT={-:-/ absolute / metric / decimal}
; #@! TF.CreationDate,2023-06-27T12:48:12+03:00
; #@! TF.GenerationSoftware,Kicad,Pcbnew,7.0.5-1.fc38
; #@! TF.FileFunction,MixedPlating,1,2
FMAT,2
METRIC
; #@! TA.AperFunction,Plated,PTH,ComponentDrill
T1C0.700
; #@! TA.AperFunction,Plated,PTH,ComponentDrill
T2C0.800
; #@! TA.AperFunction,Plated,PTH,ComponentDrill
T3C0.900
; #@! TA.AperFunction,Plated,PTH,ComponentDrill
T4C1.190
%
G90
G05
T1
X123.54Y-65.0
X128.62Y-65.0
X131.0Y-65.0
X136.08Y-65.0
X138.195Y-72.0
X138.195Y-77.0
X143.275Y-72.0
X143.275Y-77.0
T2
X123.0Y-70.0
X123.0Y-72.5
X127.175Y-70.2
X127.175Y-72.74
X127.175Y-75.28
X127.175Y-77.82
X132.0Y-85.0
X134.5Y-85.0
X134.795Y-70.2
X134.795Y-72.74
X134.795Y-75.28
X134.795Y-77.82
T3
X139.46Y-66.0
X139.47Y-84.0
X142.0Y-66.0
X142.01Y-84.0
T4
X123.0Y-84.0
X125.54Y-84.0
T0
M30
