%TF.GenerationSoftware,KiCad,Pcbnew,7.0.5-1.fc38*%
%TF.CreationDate,2023-06-17T15:27:28+03:00*%
%TF.ProjectId,flip flop 555,666c6970-2066-46c6-9f70-203535352e6b,1.0*%
%TF.SameCoordinates,Original*%
%TF.FileFunction,Copper,L1,Top*%
%TF.FilePolarity,Positive*%
%FSLAX46Y46*%
G04 Gerber Fmt 4.6, Leading zero omitted, Abs format (unit mm)*
G04 Created by KiCad (PCBNEW 7.0.5-1.fc38) date 2023-06-17 15:27:28*
%MOMM*%
%LPD*%
G01*
G04 APERTURE LIST*
G04 Aperture macros list*
%AMRoundRect*
0 Rectangle with rounded corners*
0 $1 Rounding radius*
0 $2 $3 $4 $5 $6 $7 $8 $9 X,Y pos of 4 corners*
0 Add a 4 corners polygon primitive as box body*
4,1,4,$2,$3,$4,$5,$6,$7,$8,$9,$2,$3,0*
0 Add four circle primitives for the rounded corners*
1,1,$1+$1,$2,$3*
1,1,$1+$1,$4,$5*
1,1,$1+$1,$6,$7*
1,1,$1+$1,$8,$9*
0 Add four rect primitives between the rounded corners*
20,1,$1+$1,$2,$3,$4,$5,0*
20,1,$1+$1,$4,$5,$6,$7,0*
20,1,$1+$1,$6,$7,$8,$9,0*
20,1,$1+$1,$8,$9,$2,$3,0*%
G04 Aperture macros list end*
%ADD10C,0.300000*%
%TA.AperFunction,NonConductor*%
%ADD11C,0.300000*%
%TD*%
%TA.AperFunction,NonConductor*%
%ADD12C,0.200000*%
%TD*%
%TA.AperFunction,ComponentPad*%
%ADD13O,2.400000X1.600000*%
%TD*%
%TA.AperFunction,ComponentPad*%
%ADD14R,2.400000X1.600000*%
%TD*%
%TA.AperFunction,ComponentPad*%
%ADD15O,1.400000X1.400000*%
%TD*%
%TA.AperFunction,ComponentPad*%
%ADD16C,1.400000*%
%TD*%
%TA.AperFunction,ComponentPad*%
%ADD17O,1.740000X2.190000*%
%TD*%
%TA.AperFunction,ComponentPad*%
%ADD18RoundRect,0.250000X-0.620000X-0.845000X0.620000X-0.845000X0.620000X0.845000X-0.620000X0.845000X0*%
%TD*%
%TA.AperFunction,ComponentPad*%
%ADD19R,1.800000X1.800000*%
%TD*%
%TA.AperFunction,ComponentPad*%
%ADD20C,1.800000*%
%TD*%
%TA.AperFunction,ComponentPad*%
%ADD21C,1.600000*%
%TD*%
%TA.AperFunction,ComponentPad*%
%ADD22R,1.600000X1.600000*%
%TD*%
%TA.AperFunction,Conductor*%
%ADD23C,0.500000*%
%TD*%
G04 APERTURE END LIST*
D10*
D11*
X155521185Y-96428569D02*
X155449757Y-96357141D01*
X155449757Y-96357141D02*
X155378328Y-96214284D01*
X155378328Y-96214284D02*
X155378328Y-95857141D01*
X155378328Y-95857141D02*
X155449757Y-95714284D01*
X155449757Y-95714284D02*
X155521185Y-95642855D01*
X155521185Y-95642855D02*
X155664042Y-95571426D01*
X155664042Y-95571426D02*
X155806900Y-95571426D01*
X155806900Y-95571426D02*
X156021185Y-95642855D01*
X156021185Y-95642855D02*
X156878328Y-96499998D01*
X156878328Y-96499998D02*
X156878328Y-95571426D01*
X155378328Y-95071427D02*
X155378328Y-94071427D01*
X155378328Y-94071427D02*
X156878328Y-94714284D01*
X156806900Y-93428570D02*
X156878328Y-93428570D01*
X156878328Y-93428570D02*
X157021185Y-93499999D01*
X157021185Y-93499999D02*
X157092614Y-93571427D01*
X155378328Y-92499998D02*
X155378328Y-92357141D01*
X155378328Y-92357141D02*
X155449757Y-92214284D01*
X155449757Y-92214284D02*
X155521185Y-92142856D01*
X155521185Y-92142856D02*
X155664042Y-92071427D01*
X155664042Y-92071427D02*
X155949757Y-91999998D01*
X155949757Y-91999998D02*
X156306900Y-91999998D01*
X156306900Y-91999998D02*
X156592614Y-92071427D01*
X156592614Y-92071427D02*
X156735471Y-92142856D01*
X156735471Y-92142856D02*
X156806900Y-92214284D01*
X156806900Y-92214284D02*
X156878328Y-92357141D01*
X156878328Y-92357141D02*
X156878328Y-92499998D01*
X156878328Y-92499998D02*
X156806900Y-92642856D01*
X156806900Y-92642856D02*
X156735471Y-92714284D01*
X156735471Y-92714284D02*
X156592614Y-92785713D01*
X156592614Y-92785713D02*
X156306900Y-92857141D01*
X156306900Y-92857141D02*
X155949757Y-92857141D01*
X155949757Y-92857141D02*
X155664042Y-92785713D01*
X155664042Y-92785713D02*
X155521185Y-92714284D01*
X155521185Y-92714284D02*
X155449757Y-92642856D01*
X155449757Y-92642856D02*
X155378328Y-92499998D01*
X155378328Y-91071427D02*
X155378328Y-90928570D01*
X155378328Y-90928570D02*
X155449757Y-90785713D01*
X155449757Y-90785713D02*
X155521185Y-90714285D01*
X155521185Y-90714285D02*
X155664042Y-90642856D01*
X155664042Y-90642856D02*
X155949757Y-90571427D01*
X155949757Y-90571427D02*
X156306900Y-90571427D01*
X156306900Y-90571427D02*
X156592614Y-90642856D01*
X156592614Y-90642856D02*
X156735471Y-90714285D01*
X156735471Y-90714285D02*
X156806900Y-90785713D01*
X156806900Y-90785713D02*
X156878328Y-90928570D01*
X156878328Y-90928570D02*
X156878328Y-91071427D01*
X156878328Y-91071427D02*
X156806900Y-91214285D01*
X156806900Y-91214285D02*
X156735471Y-91285713D01*
X156735471Y-91285713D02*
X156592614Y-91357142D01*
X156592614Y-91357142D02*
X156306900Y-91428570D01*
X156306900Y-91428570D02*
X155949757Y-91428570D01*
X155949757Y-91428570D02*
X155664042Y-91357142D01*
X155664042Y-91357142D02*
X155521185Y-91285713D01*
X155521185Y-91285713D02*
X155449757Y-91214285D01*
X155449757Y-91214285D02*
X155378328Y-91071427D01*
X155378328Y-89642856D02*
X155378328Y-89499999D01*
X155378328Y-89499999D02*
X155449757Y-89357142D01*
X155449757Y-89357142D02*
X155521185Y-89285714D01*
X155521185Y-89285714D02*
X155664042Y-89214285D01*
X155664042Y-89214285D02*
X155949757Y-89142856D01*
X155949757Y-89142856D02*
X156306900Y-89142856D01*
X156306900Y-89142856D02*
X156592614Y-89214285D01*
X156592614Y-89214285D02*
X156735471Y-89285714D01*
X156735471Y-89285714D02*
X156806900Y-89357142D01*
X156806900Y-89357142D02*
X156878328Y-89499999D01*
X156878328Y-89499999D02*
X156878328Y-89642856D01*
X156878328Y-89642856D02*
X156806900Y-89785714D01*
X156806900Y-89785714D02*
X156735471Y-89857142D01*
X156735471Y-89857142D02*
X156592614Y-89928571D01*
X156592614Y-89928571D02*
X156306900Y-89999999D01*
X156306900Y-89999999D02*
X155949757Y-89999999D01*
X155949757Y-89999999D02*
X155664042Y-89928571D01*
X155664042Y-89928571D02*
X155521185Y-89857142D01*
X155521185Y-89857142D02*
X155449757Y-89785714D01*
X155449757Y-89785714D02*
X155378328Y-89642856D01*
X155378328Y-88214285D02*
X155378328Y-88071428D01*
X155378328Y-88071428D02*
X155449757Y-87928571D01*
X155449757Y-87928571D02*
X155521185Y-87857143D01*
X155521185Y-87857143D02*
X155664042Y-87785714D01*
X155664042Y-87785714D02*
X155949757Y-87714285D01*
X155949757Y-87714285D02*
X156306900Y-87714285D01*
X156306900Y-87714285D02*
X156592614Y-87785714D01*
X156592614Y-87785714D02*
X156735471Y-87857143D01*
X156735471Y-87857143D02*
X156806900Y-87928571D01*
X156806900Y-87928571D02*
X156878328Y-88071428D01*
X156878328Y-88071428D02*
X156878328Y-88214285D01*
X156878328Y-88214285D02*
X156806900Y-88357143D01*
X156806900Y-88357143D02*
X156735471Y-88428571D01*
X156735471Y-88428571D02*
X156592614Y-88500000D01*
X156592614Y-88500000D02*
X156306900Y-88571428D01*
X156306900Y-88571428D02*
X155949757Y-88571428D01*
X155949757Y-88571428D02*
X155664042Y-88500000D01*
X155664042Y-88500000D02*
X155521185Y-88428571D01*
X155521185Y-88428571D02*
X155449757Y-88357143D01*
X155449757Y-88357143D02*
X155378328Y-88214285D01*
X156878328Y-85928572D02*
X155878328Y-85928572D01*
X156021185Y-85928572D02*
X155949757Y-85857143D01*
X155949757Y-85857143D02*
X155878328Y-85714286D01*
X155878328Y-85714286D02*
X155878328Y-85500000D01*
X155878328Y-85500000D02*
X155949757Y-85357143D01*
X155949757Y-85357143D02*
X156092614Y-85285715D01*
X156092614Y-85285715D02*
X156878328Y-85285715D01*
X156092614Y-85285715D02*
X155949757Y-85214286D01*
X155949757Y-85214286D02*
X155878328Y-85071429D01*
X155878328Y-85071429D02*
X155878328Y-84857143D01*
X155878328Y-84857143D02*
X155949757Y-84714286D01*
X155949757Y-84714286D02*
X156092614Y-84642857D01*
X156092614Y-84642857D02*
X156878328Y-84642857D01*
X156878328Y-83928572D02*
X155878328Y-83928572D01*
X156021185Y-83928572D02*
X155949757Y-83857143D01*
X155949757Y-83857143D02*
X155878328Y-83714286D01*
X155878328Y-83714286D02*
X155878328Y-83500000D01*
X155878328Y-83500000D02*
X155949757Y-83357143D01*
X155949757Y-83357143D02*
X156092614Y-83285715D01*
X156092614Y-83285715D02*
X156878328Y-83285715D01*
X156092614Y-83285715D02*
X155949757Y-83214286D01*
X155949757Y-83214286D02*
X155878328Y-83071429D01*
X155878328Y-83071429D02*
X155878328Y-82857143D01*
X155878328Y-82857143D02*
X155949757Y-82714286D01*
X155949757Y-82714286D02*
X156092614Y-82642857D01*
X156092614Y-82642857D02*
X156878328Y-82642857D01*
D12*
X154500000Y-103000000D02*
X158586420Y-103000000D01*
X154500000Y-76000000D02*
X158586420Y-76000000D01*
X158000000Y-103000000D02*
X158000000Y-76000000D01*
X158000000Y-103000000D02*
X158000000Y-76000000D01*
X158000000Y-103000000D02*
X157413579Y-101873496D01*
X158000000Y-103000000D02*
X158586421Y-101873496D01*
X158000000Y-76000000D02*
X158586421Y-77126504D01*
X158000000Y-76000000D02*
X157413579Y-77126504D01*
D10*
D11*
X134571430Y-71521185D02*
X134642858Y-71449757D01*
X134642858Y-71449757D02*
X134785716Y-71378328D01*
X134785716Y-71378328D02*
X135142858Y-71378328D01*
X135142858Y-71378328D02*
X135285716Y-71449757D01*
X135285716Y-71449757D02*
X135357144Y-71521185D01*
X135357144Y-71521185D02*
X135428573Y-71664042D01*
X135428573Y-71664042D02*
X135428573Y-71806900D01*
X135428573Y-71806900D02*
X135357144Y-72021185D01*
X135357144Y-72021185D02*
X134500001Y-72878328D01*
X134500001Y-72878328D02*
X135428573Y-72878328D01*
X136785715Y-71378328D02*
X136071429Y-71378328D01*
X136071429Y-71378328D02*
X136000001Y-72092614D01*
X136000001Y-72092614D02*
X136071429Y-72021185D01*
X136071429Y-72021185D02*
X136214287Y-71949757D01*
X136214287Y-71949757D02*
X136571429Y-71949757D01*
X136571429Y-71949757D02*
X136714287Y-72021185D01*
X136714287Y-72021185D02*
X136785715Y-72092614D01*
X136785715Y-72092614D02*
X136857144Y-72235471D01*
X136857144Y-72235471D02*
X136857144Y-72592614D01*
X136857144Y-72592614D02*
X136785715Y-72735471D01*
X136785715Y-72735471D02*
X136714287Y-72806900D01*
X136714287Y-72806900D02*
X136571429Y-72878328D01*
X136571429Y-72878328D02*
X136214287Y-72878328D01*
X136214287Y-72878328D02*
X136071429Y-72806900D01*
X136071429Y-72806900D02*
X136000001Y-72735471D01*
X137571429Y-72806900D02*
X137571429Y-72878328D01*
X137571429Y-72878328D02*
X137500000Y-73021185D01*
X137500000Y-73021185D02*
X137428572Y-73092614D01*
X138500001Y-71378328D02*
X138642858Y-71378328D01*
X138642858Y-71378328D02*
X138785715Y-71449757D01*
X138785715Y-71449757D02*
X138857144Y-71521185D01*
X138857144Y-71521185D02*
X138928572Y-71664042D01*
X138928572Y-71664042D02*
X139000001Y-71949757D01*
X139000001Y-71949757D02*
X139000001Y-72306900D01*
X139000001Y-72306900D02*
X138928572Y-72592614D01*
X138928572Y-72592614D02*
X138857144Y-72735471D01*
X138857144Y-72735471D02*
X138785715Y-72806900D01*
X138785715Y-72806900D02*
X138642858Y-72878328D01*
X138642858Y-72878328D02*
X138500001Y-72878328D01*
X138500001Y-72878328D02*
X138357144Y-72806900D01*
X138357144Y-72806900D02*
X138285715Y-72735471D01*
X138285715Y-72735471D02*
X138214286Y-72592614D01*
X138214286Y-72592614D02*
X138142858Y-72306900D01*
X138142858Y-72306900D02*
X138142858Y-71949757D01*
X138142858Y-71949757D02*
X138214286Y-71664042D01*
X138214286Y-71664042D02*
X138285715Y-71521185D01*
X138285715Y-71521185D02*
X138357144Y-71449757D01*
X138357144Y-71449757D02*
X138500001Y-71378328D01*
X139928572Y-71378328D02*
X140071429Y-71378328D01*
X140071429Y-71378328D02*
X140214286Y-71449757D01*
X140214286Y-71449757D02*
X140285715Y-71521185D01*
X140285715Y-71521185D02*
X140357143Y-71664042D01*
X140357143Y-71664042D02*
X140428572Y-71949757D01*
X140428572Y-71949757D02*
X140428572Y-72306900D01*
X140428572Y-72306900D02*
X140357143Y-72592614D01*
X140357143Y-72592614D02*
X140285715Y-72735471D01*
X140285715Y-72735471D02*
X140214286Y-72806900D01*
X140214286Y-72806900D02*
X140071429Y-72878328D01*
X140071429Y-72878328D02*
X139928572Y-72878328D01*
X139928572Y-72878328D02*
X139785715Y-72806900D01*
X139785715Y-72806900D02*
X139714286Y-72735471D01*
X139714286Y-72735471D02*
X139642857Y-72592614D01*
X139642857Y-72592614D02*
X139571429Y-72306900D01*
X139571429Y-72306900D02*
X139571429Y-71949757D01*
X139571429Y-71949757D02*
X139642857Y-71664042D01*
X139642857Y-71664042D02*
X139714286Y-71521185D01*
X139714286Y-71521185D02*
X139785715Y-71449757D01*
X139785715Y-71449757D02*
X139928572Y-71378328D01*
X141357143Y-71378328D02*
X141500000Y-71378328D01*
X141500000Y-71378328D02*
X141642857Y-71449757D01*
X141642857Y-71449757D02*
X141714286Y-71521185D01*
X141714286Y-71521185D02*
X141785714Y-71664042D01*
X141785714Y-71664042D02*
X141857143Y-71949757D01*
X141857143Y-71949757D02*
X141857143Y-72306900D01*
X141857143Y-72306900D02*
X141785714Y-72592614D01*
X141785714Y-72592614D02*
X141714286Y-72735471D01*
X141714286Y-72735471D02*
X141642857Y-72806900D01*
X141642857Y-72806900D02*
X141500000Y-72878328D01*
X141500000Y-72878328D02*
X141357143Y-72878328D01*
X141357143Y-72878328D02*
X141214286Y-72806900D01*
X141214286Y-72806900D02*
X141142857Y-72735471D01*
X141142857Y-72735471D02*
X141071428Y-72592614D01*
X141071428Y-72592614D02*
X141000000Y-72306900D01*
X141000000Y-72306900D02*
X141000000Y-71949757D01*
X141000000Y-71949757D02*
X141071428Y-71664042D01*
X141071428Y-71664042D02*
X141142857Y-71521185D01*
X141142857Y-71521185D02*
X141214286Y-71449757D01*
X141214286Y-71449757D02*
X141357143Y-71378328D01*
X142785714Y-71378328D02*
X142928571Y-71378328D01*
X142928571Y-71378328D02*
X143071428Y-71449757D01*
X143071428Y-71449757D02*
X143142857Y-71521185D01*
X143142857Y-71521185D02*
X143214285Y-71664042D01*
X143214285Y-71664042D02*
X143285714Y-71949757D01*
X143285714Y-71949757D02*
X143285714Y-72306900D01*
X143285714Y-72306900D02*
X143214285Y-72592614D01*
X143214285Y-72592614D02*
X143142857Y-72735471D01*
X143142857Y-72735471D02*
X143071428Y-72806900D01*
X143071428Y-72806900D02*
X142928571Y-72878328D01*
X142928571Y-72878328D02*
X142785714Y-72878328D01*
X142785714Y-72878328D02*
X142642857Y-72806900D01*
X142642857Y-72806900D02*
X142571428Y-72735471D01*
X142571428Y-72735471D02*
X142499999Y-72592614D01*
X142499999Y-72592614D02*
X142428571Y-72306900D01*
X142428571Y-72306900D02*
X142428571Y-71949757D01*
X142428571Y-71949757D02*
X142499999Y-71664042D01*
X142499999Y-71664042D02*
X142571428Y-71521185D01*
X142571428Y-71521185D02*
X142642857Y-71449757D01*
X142642857Y-71449757D02*
X142785714Y-71378328D01*
X145071427Y-72878328D02*
X145071427Y-71878328D01*
X145071427Y-72021185D02*
X145142856Y-71949757D01*
X145142856Y-71949757D02*
X145285713Y-71878328D01*
X145285713Y-71878328D02*
X145499999Y-71878328D01*
X145499999Y-71878328D02*
X145642856Y-71949757D01*
X145642856Y-71949757D02*
X145714285Y-72092614D01*
X145714285Y-72092614D02*
X145714285Y-72878328D01*
X145714285Y-72092614D02*
X145785713Y-71949757D01*
X145785713Y-71949757D02*
X145928570Y-71878328D01*
X145928570Y-71878328D02*
X146142856Y-71878328D01*
X146142856Y-71878328D02*
X146285713Y-71949757D01*
X146285713Y-71949757D02*
X146357142Y-72092614D01*
X146357142Y-72092614D02*
X146357142Y-72878328D01*
X147071427Y-72878328D02*
X147071427Y-71878328D01*
X147071427Y-72021185D02*
X147142856Y-71949757D01*
X147142856Y-71949757D02*
X147285713Y-71878328D01*
X147285713Y-71878328D02*
X147499999Y-71878328D01*
X147499999Y-71878328D02*
X147642856Y-71949757D01*
X147642856Y-71949757D02*
X147714285Y-72092614D01*
X147714285Y-72092614D02*
X147714285Y-72878328D01*
X147714285Y-72092614D02*
X147785713Y-71949757D01*
X147785713Y-71949757D02*
X147928570Y-71878328D01*
X147928570Y-71878328D02*
X148142856Y-71878328D01*
X148142856Y-71878328D02*
X148285713Y-71949757D01*
X148285713Y-71949757D02*
X148357142Y-72092614D01*
X148357142Y-72092614D02*
X148357142Y-72878328D01*
D12*
X129000000Y-75500000D02*
X129000000Y-73413580D01*
X154000000Y-75500000D02*
X154000000Y-73413580D01*
X129000000Y-74000000D02*
X154000000Y-74000000D01*
X129000000Y-74000000D02*
X154000000Y-74000000D01*
X129000000Y-74000000D02*
X130126504Y-73413579D01*
X129000000Y-74000000D02*
X130126504Y-74586421D01*
X154000000Y-74000000D02*
X152873496Y-74586421D01*
X154000000Y-74000000D02*
X152873496Y-73413579D01*
D13*
%TO.P,U1,8,VCC*%
%TO.N,+5V*%
X143795000Y-84200000D03*
%TO.P,U1,7,DIS*%
%TO.N,Net-(U1-DIS)*%
X143795000Y-86740000D03*
%TO.P,U1,6,THR*%
%TO.N,Net-(U1-THR)*%
X143795000Y-89280000D03*
%TO.P,U1,5,CV*%
%TO.N,Net-(U1-CV)*%
X143795000Y-91820000D03*
%TO.P,U1,4,R*%
%TO.N,+5V*%
X136175000Y-91820000D03*
%TO.P,U1,3,Q*%
%TO.N,Net-(D1-K)*%
X136175000Y-89280000D03*
%TO.P,U1,2,TR*%
%TO.N,Net-(U1-THR)*%
X136175000Y-86740000D03*
D14*
%TO.P,U1,1,GND*%
%TO.N,GND*%
X136175000Y-84200000D03*
%TD*%
D15*
%TO.P,R4,2*%
%TO.N,Net-(U1-DIS)*%
X137620000Y-79000000D03*
D16*
%TO.P,R4,1*%
%TO.N,Net-(U1-THR)*%
X132540000Y-79000000D03*
%TD*%
%TO.P,R3,1*%
%TO.N,Net-(U1-DIS)*%
X140000000Y-79000000D03*
D15*
%TO.P,R3,2*%
%TO.N,+5V*%
X145080000Y-79000000D03*
%TD*%
D16*
%TO.P,R2,1*%
%TO.N,GND*%
X147195000Y-91000000D03*
D15*
%TO.P,R2,2*%
%TO.N,Net-(D2-K)*%
X152275000Y-91000000D03*
%TD*%
D16*
%TO.P,R1,1*%
%TO.N,Net-(D1-A)*%
X152275000Y-86000000D03*
D15*
%TO.P,R1,2*%
%TO.N,+5V*%
X147195000Y-86000000D03*
%TD*%
D17*
%TO.P,J2,2,Pin_2*%
%TO.N,GND*%
X134540000Y-98000000D03*
D18*
%TO.P,J2,1,Pin_1*%
%TO.N,+5V*%
X132000000Y-98000000D03*
%TD*%
D19*
%TO.P,D2,1,K*%
%TO.N,Net-(D2-K)*%
X151010000Y-98000000D03*
D20*
%TO.P,D2,2,A*%
%TO.N,Net-(D1-K)*%
X148470000Y-98000000D03*
%TD*%
D19*
%TO.P,D1,1,K*%
%TO.N,Net-(D1-K)*%
X148460000Y-80000000D03*
D20*
%TO.P,D1,2,A*%
%TO.N,Net-(D1-A)*%
X151000000Y-80000000D03*
%TD*%
D21*
%TO.P,C3,2*%
%TO.N,GND*%
X132000000Y-84000000D03*
%TO.P,C3,1*%
%TO.N,Net-(U1-CV)*%
X132000000Y-86500000D03*
%TD*%
%TO.P,C2,2*%
%TO.N,GND*%
X143500000Y-99000000D03*
D22*
%TO.P,C2,1*%
%TO.N,Net-(U1-THR)*%
X141000000Y-99000000D03*
%TD*%
D23*
%TO.N,Net-(U1-THR)*%
X136175000Y-86740000D02*
X141255000Y-86740000D01*
X141255000Y-86740000D02*
X143795000Y-89280000D01*
%TO.N,Net-(U1-DIS)*%
X143795000Y-86740000D02*
X140000000Y-82945000D01*
X140000000Y-82945000D02*
X140000000Y-79000000D01*
%TO.N,Net-(U1-CV)*%
X132000000Y-86500000D02*
X133530000Y-88030000D01*
X140005000Y-88030000D02*
X143795000Y-91820000D01*
X133530000Y-88030000D02*
X140005000Y-88030000D01*
%TO.N,Net-(D1-K)*%
X136175000Y-89280000D02*
X144895000Y-98000000D01*
X144895000Y-98000000D02*
X148470000Y-98000000D01*
%TD*%
%TA.AperFunction,Conductor*%
%TO.N,GND*%
G36*
X153942539Y-76020185D02*
G01*
X153988294Y-76072989D01*
X153999500Y-76124500D01*
X153999500Y-102875500D01*
X153979815Y-102942539D01*
X153927011Y-102988294D01*
X153875500Y-102999500D01*
X129124500Y-102999500D01*
X129057461Y-102979815D01*
X129011706Y-102927011D01*
X129000500Y-102875500D01*
X129000500Y-98895001D01*
X130629500Y-98895001D01*
X130629501Y-98895018D01*
X130640000Y-98997796D01*
X130640001Y-98997799D01*
X130695185Y-99164331D01*
X130695187Y-99164336D01*
X130730069Y-99220888D01*
X130787288Y-99313656D01*
X130911344Y-99437712D01*
X131060666Y-99529814D01*
X131227203Y-99584999D01*
X131329991Y-99595500D01*
X132670008Y-99595499D01*
X132772797Y-99584999D01*
X132939334Y-99529814D01*
X133088656Y-99437712D01*
X133212712Y-99313656D01*
X133304814Y-99164334D01*
X133304817Y-99164322D01*
X133306095Y-99161584D01*
X133307480Y-99160010D01*
X133308605Y-99158187D01*
X133308916Y-99158379D01*
X133352263Y-99109141D01*
X133419455Y-99089983D01*
X133486338Y-99110193D01*
X133508005Y-99128179D01*
X133631603Y-99257139D01*
X133631604Y-99257140D01*
X133819097Y-99395810D01*
X134027338Y-99500803D01*
X134250330Y-99569093D01*
X134250328Y-99569093D01*
X134289999Y-99574173D01*
X134290000Y-99574173D01*
X134290000Y-98540469D01*
X134384674Y-98579685D01*
X134501003Y-98595000D01*
X134578997Y-98595000D01*
X134695326Y-98579685D01*
X134790000Y-98540469D01*
X134790000Y-99572574D01*
X134942618Y-99539683D01*
X134942619Y-99539683D01*
X135159005Y-99452732D01*
X135357592Y-99330458D01*
X135532656Y-99176382D01*
X135532660Y-99176378D01*
X135679157Y-98994945D01*
X135679161Y-98994939D01*
X135792895Y-98791346D01*
X135870585Y-98571461D01*
X135870587Y-98571453D01*
X135909999Y-98341612D01*
X135910000Y-98341603D01*
X135910000Y-98250000D01*
X135080470Y-98250000D01*
X135119685Y-98155326D01*
X135140134Y-98000000D01*
X135119685Y-97844674D01*
X135080470Y-97750000D01*
X135910000Y-97750000D01*
X135910000Y-97716805D01*
X135909999Y-97716787D01*
X135895177Y-97542636D01*
X135836412Y-97316948D01*
X135740356Y-97104447D01*
X135740351Y-97104439D01*
X135609764Y-96911228D01*
X135448396Y-96742860D01*
X135448395Y-96742859D01*
X135260902Y-96604189D01*
X135052661Y-96499196D01*
X134829675Y-96430907D01*
X134829669Y-96430906D01*
X134790000Y-96425825D01*
X134790000Y-97459530D01*
X134695326Y-97420315D01*
X134578997Y-97405000D01*
X134501003Y-97405000D01*
X134384674Y-97420315D01*
X134290000Y-97459530D01*
X134290000Y-96427424D01*
X134289999Y-96427424D01*
X134137380Y-96460316D01*
X134137379Y-96460316D01*
X133920994Y-96547267D01*
X133722407Y-96669541D01*
X133547343Y-96823617D01*
X133514899Y-96863798D01*
X133457468Y-96903590D01*
X133387640Y-96906015D01*
X133327586Y-96870304D01*
X133306036Y-96838290D01*
X133304816Y-96835674D01*
X133304814Y-96835666D01*
X133212712Y-96686344D01*
X133088656Y-96562288D01*
X132939334Y-96470186D01*
X132772797Y-96415001D01*
X132772795Y-96415000D01*
X132670010Y-96404500D01*
X131329998Y-96404500D01*
X131329981Y-96404501D01*
X131227203Y-96415000D01*
X131227200Y-96415001D01*
X131060668Y-96470185D01*
X131060663Y-96470187D01*
X130911342Y-96562289D01*
X130787289Y-96686342D01*
X130695187Y-96835663D01*
X130695185Y-96835668D01*
X130687894Y-96857671D01*
X130640001Y-97002203D01*
X130640001Y-97002204D01*
X130640000Y-97002204D01*
X130629500Y-97104983D01*
X130629500Y-98895001D01*
X129000500Y-98895001D01*
X129000500Y-86500001D01*
X130694532Y-86500001D01*
X130714364Y-86726686D01*
X130714366Y-86726697D01*
X130773258Y-86946488D01*
X130773261Y-86946497D01*
X130869431Y-87152732D01*
X130869432Y-87152734D01*
X130999954Y-87339141D01*
X131160858Y-87500045D01*
X131160861Y-87500047D01*
X131347266Y-87630568D01*
X131553504Y-87726739D01*
X131773308Y-87785635D01*
X131935230Y-87799801D01*
X131999998Y-87805468D01*
X132000000Y-87805468D01*
X132000001Y-87805468D01*
X132020062Y-87803712D01*
X132166861Y-87790869D01*
X132235359Y-87804635D01*
X132265348Y-87826716D01*
X132954270Y-88515638D01*
X132966051Y-88529270D01*
X132980388Y-88548528D01*
X133020409Y-88582111D01*
X133024397Y-88585766D01*
X133030217Y-88591586D01*
X133030222Y-88591590D01*
X133030223Y-88591591D01*
X133055263Y-88611390D01*
X133056644Y-88612515D01*
X133114786Y-88661302D01*
X133114787Y-88661302D01*
X133114789Y-88661304D01*
X133120818Y-88665270D01*
X133120785Y-88665319D01*
X133127147Y-88669372D01*
X133127179Y-88669321D01*
X133133319Y-88673108D01*
X133133323Y-88673111D01*
X133171278Y-88690809D01*
X133202137Y-88705200D01*
X133203760Y-88705986D01*
X133271562Y-88740038D01*
X133278357Y-88742511D01*
X133278336Y-88742567D01*
X133285457Y-88745043D01*
X133285476Y-88744986D01*
X133292319Y-88747253D01*
X133292327Y-88747257D01*
X133366748Y-88762623D01*
X133368371Y-88762983D01*
X133442279Y-88780500D01*
X133442280Y-88780500D01*
X133442284Y-88780501D01*
X133449453Y-88781339D01*
X133449446Y-88781398D01*
X133456944Y-88782164D01*
X133456950Y-88782105D01*
X133464139Y-88782734D01*
X133464143Y-88782733D01*
X133464144Y-88782734D01*
X133492229Y-88781916D01*
X133540032Y-88780526D01*
X133541835Y-88780500D01*
X134400863Y-88780500D01*
X134467902Y-88800185D01*
X134513657Y-88852989D01*
X134523601Y-88922147D01*
X134520638Y-88936593D01*
X134489366Y-89053302D01*
X134489364Y-89053313D01*
X134469532Y-89279998D01*
X134469532Y-89280001D01*
X134489364Y-89506686D01*
X134489366Y-89506697D01*
X134548258Y-89726488D01*
X134548261Y-89726497D01*
X134644431Y-89932732D01*
X134644432Y-89932734D01*
X134774954Y-90119141D01*
X134935858Y-90280045D01*
X134935861Y-90280047D01*
X135122266Y-90410568D01*
X135180275Y-90437618D01*
X135232714Y-90483791D01*
X135251866Y-90550984D01*
X135231650Y-90617865D01*
X135180275Y-90662382D01*
X135122267Y-90689431D01*
X135122265Y-90689432D01*
X134935858Y-90819954D01*
X134774954Y-90980858D01*
X134644432Y-91167265D01*
X134644431Y-91167267D01*
X134548261Y-91373502D01*
X134548258Y-91373511D01*
X134489366Y-91593302D01*
X134489364Y-91593313D01*
X134469532Y-91819998D01*
X134469532Y-91820001D01*
X134489364Y-92046686D01*
X134489366Y-92046697D01*
X134548258Y-92266488D01*
X134548261Y-92266497D01*
X134644431Y-92472732D01*
X134644432Y-92472734D01*
X134774954Y-92659141D01*
X134935858Y-92820045D01*
X134935861Y-92820047D01*
X135122266Y-92950568D01*
X135328504Y-93046739D01*
X135548308Y-93105635D01*
X135718214Y-93120499D01*
X135718215Y-93120500D01*
X135718216Y-93120500D01*
X136631785Y-93120500D01*
X136631785Y-93120499D01*
X136801692Y-93105635D01*
X137021496Y-93046739D01*
X137227734Y-92950568D01*
X137414139Y-92820047D01*
X137575047Y-92659139D01*
X137705568Y-92472734D01*
X137801739Y-92266496D01*
X137809208Y-92238619D01*
X137845571Y-92178960D01*
X137908417Y-92148429D01*
X137977792Y-92156722D01*
X138016664Y-92183031D01*
X143338822Y-97505189D01*
X143372307Y-97566512D01*
X143367323Y-97636204D01*
X143325451Y-97692137D01*
X143278372Y-97712520D01*
X143278624Y-97713458D01*
X143053682Y-97773730D01*
X143053673Y-97773734D01*
X142847513Y-97869868D01*
X142774526Y-97920973D01*
X143455599Y-98602046D01*
X143374852Y-98614835D01*
X143261955Y-98672359D01*
X143172359Y-98761955D01*
X143114835Y-98874852D01*
X143102046Y-98955599D01*
X142415798Y-98269351D01*
X142366805Y-98259505D01*
X142316623Y-98210889D01*
X142301981Y-98155366D01*
X142300900Y-98155423D01*
X142300854Y-98155429D01*
X142300853Y-98155426D01*
X142300676Y-98155436D01*
X142300499Y-98152135D01*
X142300499Y-98152128D01*
X142294091Y-98092517D01*
X142259584Y-98000000D01*
X142243797Y-97957671D01*
X142243793Y-97957664D01*
X142157547Y-97842455D01*
X142157544Y-97842452D01*
X142042335Y-97756206D01*
X142042328Y-97756202D01*
X141907482Y-97705908D01*
X141907483Y-97705908D01*
X141847883Y-97699501D01*
X141847881Y-97699500D01*
X141847873Y-97699500D01*
X141847864Y-97699500D01*
X140152129Y-97699500D01*
X140152123Y-97699501D01*
X140092516Y-97705908D01*
X139957671Y-97756202D01*
X139957664Y-97756206D01*
X139842455Y-97842452D01*
X139842452Y-97842455D01*
X139756206Y-97957664D01*
X139756202Y-97957671D01*
X139705908Y-98092517D01*
X139699501Y-98152116D01*
X139699501Y-98152123D01*
X139699500Y-98152135D01*
X139699500Y-99847870D01*
X139699501Y-99847876D01*
X139705908Y-99907483D01*
X139756202Y-100042328D01*
X139756206Y-100042335D01*
X139842452Y-100157544D01*
X139842455Y-100157547D01*
X139957664Y-100243793D01*
X139957671Y-100243797D01*
X140092517Y-100294091D01*
X140092516Y-100294091D01*
X140099444Y-100294835D01*
X140152127Y-100300500D01*
X141847872Y-100300499D01*
X141907483Y-100294091D01*
X142042331Y-100243796D01*
X142157546Y-100157546D01*
X142243796Y-100042331D01*
X142294091Y-99907483D01*
X142300500Y-99847873D01*
X142300499Y-99847845D01*
X142300678Y-99844547D01*
X142302183Y-99844627D01*
X142320112Y-99783326D01*
X142372868Y-99737514D01*
X142416464Y-99729981D01*
X143102046Y-99044399D01*
X143114835Y-99125148D01*
X143172359Y-99238045D01*
X143261955Y-99327641D01*
X143374852Y-99385165D01*
X143455597Y-99397953D01*
X142774526Y-100079025D01*
X142774526Y-100079026D01*
X142847512Y-100130131D01*
X142847516Y-100130133D01*
X143053673Y-100226265D01*
X143053682Y-100226269D01*
X143273389Y-100285139D01*
X143273400Y-100285141D01*
X143499998Y-100304966D01*
X143500002Y-100304966D01*
X143726599Y-100285141D01*
X143726610Y-100285139D01*
X143946317Y-100226269D01*
X143946331Y-100226264D01*
X144152478Y-100130136D01*
X144225472Y-100079025D01*
X143544399Y-99397953D01*
X143625148Y-99385165D01*
X143738045Y-99327641D01*
X143827641Y-99238045D01*
X143885165Y-99125148D01*
X143897953Y-99044400D01*
X144579025Y-99725472D01*
X144630136Y-99652478D01*
X144726264Y-99446331D01*
X144726269Y-99446317D01*
X144785139Y-99226610D01*
X144785141Y-99226599D01*
X144804966Y-99000002D01*
X144804966Y-98999997D01*
X144794932Y-98885307D01*
X144808699Y-98816807D01*
X144857314Y-98766624D01*
X144918460Y-98750500D01*
X147220315Y-98750500D01*
X147287354Y-98770185D01*
X147324123Y-98806678D01*
X147361015Y-98863145D01*
X147361017Y-98863147D01*
X147361021Y-98863153D01*
X147518216Y-99033913D01*
X147518219Y-99033915D01*
X147518222Y-99033918D01*
X147701365Y-99176464D01*
X147701371Y-99176468D01*
X147701374Y-99176470D01*
X147905497Y-99286936D01*
X147983330Y-99313656D01*
X148125015Y-99362297D01*
X148125017Y-99362297D01*
X148125019Y-99362298D01*
X148353951Y-99400500D01*
X148353952Y-99400500D01*
X148586048Y-99400500D01*
X148586049Y-99400500D01*
X148814981Y-99362298D01*
X149034503Y-99286936D01*
X149238626Y-99176470D01*
X149254219Y-99164334D01*
X149381212Y-99065491D01*
X149421784Y-99033913D01*
X149430130Y-99024846D01*
X149490010Y-98988854D01*
X149559849Y-98990949D01*
X149617468Y-99030469D01*
X149637544Y-99065491D01*
X149666203Y-99142330D01*
X149666206Y-99142335D01*
X149752452Y-99257544D01*
X149752455Y-99257547D01*
X149867664Y-99343793D01*
X149867671Y-99343797D01*
X150002517Y-99394091D01*
X150002516Y-99394091D01*
X150009444Y-99394835D01*
X150062127Y-99400500D01*
X151957872Y-99400499D01*
X152017483Y-99394091D01*
X152152331Y-99343796D01*
X152267546Y-99257546D01*
X152353796Y-99142331D01*
X152404091Y-99007483D01*
X152410500Y-98947873D01*
X152410499Y-97052128D01*
X152404091Y-96992517D01*
X152394233Y-96966087D01*
X152353797Y-96857671D01*
X152353793Y-96857664D01*
X152267547Y-96742455D01*
X152267544Y-96742452D01*
X152152335Y-96656206D01*
X152152328Y-96656202D01*
X152017482Y-96605908D01*
X152017483Y-96605908D01*
X151957883Y-96599501D01*
X151957881Y-96599500D01*
X151957873Y-96599500D01*
X151957864Y-96599500D01*
X150062129Y-96599500D01*
X150062123Y-96599501D01*
X150002516Y-96605908D01*
X149867671Y-96656202D01*
X149867664Y-96656206D01*
X149752455Y-96742452D01*
X149752452Y-96742455D01*
X149666206Y-96857664D01*
X149666203Y-96857670D01*
X149637544Y-96934508D01*
X149595672Y-96990441D01*
X149530208Y-97014858D01*
X149461935Y-97000006D01*
X149430135Y-96975158D01*
X149421784Y-96966087D01*
X149421778Y-96966082D01*
X149421777Y-96966081D01*
X149238634Y-96823535D01*
X149238628Y-96823531D01*
X149034504Y-96713064D01*
X149034495Y-96713061D01*
X148814984Y-96637702D01*
X148624450Y-96605908D01*
X148586049Y-96599500D01*
X148353951Y-96599500D01*
X148315550Y-96605908D01*
X148125015Y-96637702D01*
X147905504Y-96713061D01*
X147905495Y-96713064D01*
X147701371Y-96823531D01*
X147701365Y-96823535D01*
X147518222Y-96966081D01*
X147518219Y-96966084D01*
X147518216Y-96966086D01*
X147518216Y-96966087D01*
X147390346Y-97104992D01*
X147361015Y-97136854D01*
X147324123Y-97193322D01*
X147270977Y-97238678D01*
X147220315Y-97249500D01*
X145257230Y-97249500D01*
X145190191Y-97229815D01*
X145169549Y-97213181D01*
X137825330Y-89868962D01*
X137791845Y-89807639D01*
X137796829Y-89737947D01*
X137800632Y-89728870D01*
X137800710Y-89728701D01*
X137801739Y-89726496D01*
X137860635Y-89506692D01*
X137880468Y-89280000D01*
X137860635Y-89053308D01*
X137831152Y-88943275D01*
X137829362Y-88936593D01*
X137831025Y-88866743D01*
X137870188Y-88808881D01*
X137934417Y-88781377D01*
X137949137Y-88780500D01*
X139642770Y-88780500D01*
X139709809Y-88800185D01*
X139730451Y-88816819D01*
X142144670Y-91231037D01*
X142178155Y-91292360D01*
X142173171Y-91362052D01*
X142169377Y-91371111D01*
X142168259Y-91373507D01*
X142109366Y-91593302D01*
X142109364Y-91593313D01*
X142089532Y-91819998D01*
X142089532Y-91820001D01*
X142109364Y-92046686D01*
X142109366Y-92046697D01*
X142168258Y-92266488D01*
X142168261Y-92266497D01*
X142264431Y-92472732D01*
X142264432Y-92472734D01*
X142394954Y-92659141D01*
X142555858Y-92820045D01*
X142555861Y-92820047D01*
X142742266Y-92950568D01*
X142948504Y-93046739D01*
X143168308Y-93105635D01*
X143338214Y-93120499D01*
X143338215Y-93120500D01*
X143338216Y-93120500D01*
X144251785Y-93120500D01*
X144251785Y-93120499D01*
X144421692Y-93105635D01*
X144641496Y-93046739D01*
X144847734Y-92950568D01*
X145034139Y-92820047D01*
X145195047Y-92659139D01*
X145325568Y-92472734D01*
X145421739Y-92266496D01*
X145480635Y-92046692D01*
X145484118Y-92006880D01*
X146541672Y-92006880D01*
X146657821Y-92078797D01*
X146657822Y-92078798D01*
X146865195Y-92159134D01*
X147083807Y-92200000D01*
X147306193Y-92200000D01*
X147524809Y-92159133D01*
X147732168Y-92078801D01*
X147732181Y-92078795D01*
X147848326Y-92006879D01*
X147195001Y-91353553D01*
X147195000Y-91353553D01*
X146541672Y-92006879D01*
X146541672Y-92006880D01*
X145484118Y-92006880D01*
X145500468Y-91820000D01*
X145480635Y-91593308D01*
X145421739Y-91373504D01*
X145325568Y-91167266D01*
X145208448Y-91000000D01*
X145989859Y-91000000D01*
X146010378Y-91221439D01*
X146071240Y-91435350D01*
X146170369Y-91634428D01*
X146186137Y-91655308D01*
X146186138Y-91655308D01*
X146812145Y-91029302D01*
X146841372Y-91029302D01*
X146870047Y-91142538D01*
X146933936Y-91240327D01*
X147026115Y-91312072D01*
X147136595Y-91350000D01*
X147224005Y-91350000D01*
X147310216Y-91335614D01*
X147412947Y-91280019D01*
X147492060Y-91194079D01*
X147538982Y-91087108D01*
X147546200Y-91000000D01*
X147548553Y-91000000D01*
X148203861Y-91655308D01*
X148219631Y-91634425D01*
X148219633Y-91634422D01*
X148318759Y-91435350D01*
X148379621Y-91221439D01*
X148400140Y-91000000D01*
X151069356Y-91000000D01*
X151089884Y-91221535D01*
X151089885Y-91221537D01*
X151150769Y-91435523D01*
X151150775Y-91435538D01*
X151249938Y-91634683D01*
X151249943Y-91634691D01*
X151384020Y-91812238D01*
X151548437Y-91962123D01*
X151548439Y-91962125D01*
X151737595Y-92079245D01*
X151737596Y-92079245D01*
X151737599Y-92079247D01*
X151945060Y-92159618D01*
X152163757Y-92200500D01*
X152163759Y-92200500D01*
X152386241Y-92200500D01*
X152386243Y-92200500D01*
X152604940Y-92159618D01*
X152812401Y-92079247D01*
X153001562Y-91962124D01*
X153165981Y-91812236D01*
X153300058Y-91634689D01*
X153399229Y-91435528D01*
X153460115Y-91221536D01*
X153480643Y-91000000D01*
X153460115Y-90778464D01*
X153399229Y-90564472D01*
X153392023Y-90550000D01*
X153300061Y-90365316D01*
X153300056Y-90365308D01*
X153165979Y-90187761D01*
X153001562Y-90037876D01*
X153001560Y-90037874D01*
X152812404Y-89920754D01*
X152812398Y-89920752D01*
X152604940Y-89840382D01*
X152386243Y-89799500D01*
X152163757Y-89799500D01*
X151945060Y-89840382D01*
X151871287Y-89868962D01*
X151737601Y-89920752D01*
X151737595Y-89920754D01*
X151548439Y-90037874D01*
X151548437Y-90037876D01*
X151384020Y-90187761D01*
X151249943Y-90365308D01*
X151249938Y-90365316D01*
X151150775Y-90564461D01*
X151150769Y-90564476D01*
X151089885Y-90778462D01*
X151089884Y-90778464D01*
X151069356Y-90999999D01*
X151069356Y-91000000D01*
X148400140Y-91000000D01*
X148400140Y-90999999D01*
X148379621Y-90778560D01*
X148318759Y-90564649D01*
X148219635Y-90365580D01*
X148219630Y-90365572D01*
X148203860Y-90344690D01*
X147548553Y-90999999D01*
X147548553Y-91000000D01*
X147546200Y-91000000D01*
X147548628Y-90970698D01*
X147519953Y-90857462D01*
X147456064Y-90759673D01*
X147363885Y-90687928D01*
X147253405Y-90650000D01*
X147165995Y-90650000D01*
X147079784Y-90664386D01*
X146977053Y-90719981D01*
X146897940Y-90805921D01*
X146851018Y-90912892D01*
X146841372Y-91029302D01*
X146812145Y-91029302D01*
X146841447Y-91000000D01*
X146186138Y-90344691D01*
X146186137Y-90344691D01*
X146170368Y-90365574D01*
X146071240Y-90564649D01*
X146010378Y-90778560D01*
X145989859Y-90999999D01*
X145989859Y-91000000D01*
X145208448Y-91000000D01*
X145195045Y-90980858D01*
X145034141Y-90819954D01*
X144847734Y-90689432D01*
X144847728Y-90689429D01*
X144789725Y-90662382D01*
X144737285Y-90616210D01*
X144718133Y-90549017D01*
X144738348Y-90482135D01*
X144789725Y-90437618D01*
X144847734Y-90410568D01*
X145034139Y-90280047D01*
X145195047Y-90119139D01*
X145283286Y-89993119D01*
X146541671Y-89993119D01*
X147195000Y-90646447D01*
X147195001Y-90646447D01*
X147848327Y-89993119D01*
X147732178Y-89921202D01*
X147732177Y-89921201D01*
X147524804Y-89840865D01*
X147306193Y-89800000D01*
X147083807Y-89800000D01*
X146865195Y-89840865D01*
X146657824Y-89921200D01*
X146657823Y-89921201D01*
X146541671Y-89993119D01*
X145283286Y-89993119D01*
X145325568Y-89932734D01*
X145421739Y-89726496D01*
X145480635Y-89506692D01*
X145500468Y-89280000D01*
X145480635Y-89053308D01*
X145421739Y-88833504D01*
X145325568Y-88627266D01*
X145195047Y-88440861D01*
X145195045Y-88440858D01*
X145034141Y-88279954D01*
X144847734Y-88149432D01*
X144847728Y-88149429D01*
X144789725Y-88122382D01*
X144737285Y-88076210D01*
X144718133Y-88009017D01*
X144738348Y-87942135D01*
X144789725Y-87897618D01*
X144847734Y-87870568D01*
X145034139Y-87740047D01*
X145195047Y-87579139D01*
X145325568Y-87392734D01*
X145421739Y-87186496D01*
X145480635Y-86966692D01*
X145500468Y-86740000D01*
X145480635Y-86513308D01*
X145421739Y-86293504D01*
X145325568Y-86087266D01*
X145264464Y-86000000D01*
X145989356Y-86000000D01*
X146009884Y-86221535D01*
X146009885Y-86221537D01*
X146070769Y-86435523D01*
X146070775Y-86435538D01*
X146169938Y-86634683D01*
X146169943Y-86634691D01*
X146304020Y-86812238D01*
X146468437Y-86962123D01*
X146468439Y-86962125D01*
X146657595Y-87079245D01*
X146657596Y-87079245D01*
X146657599Y-87079247D01*
X146865060Y-87159618D01*
X147083757Y-87200500D01*
X147083759Y-87200500D01*
X147306241Y-87200500D01*
X147306243Y-87200500D01*
X147524940Y-87159618D01*
X147732401Y-87079247D01*
X147921562Y-86962124D01*
X148085981Y-86812236D01*
X148220058Y-86634689D01*
X148319229Y-86435528D01*
X148380115Y-86221536D01*
X148400643Y-86000000D01*
X151069356Y-86000000D01*
X151089884Y-86221535D01*
X151089885Y-86221537D01*
X151150769Y-86435523D01*
X151150775Y-86435538D01*
X151249938Y-86634683D01*
X151249943Y-86634691D01*
X151384020Y-86812238D01*
X151548437Y-86962123D01*
X151548439Y-86962125D01*
X151737595Y-87079245D01*
X151737596Y-87079245D01*
X151737599Y-87079247D01*
X151945060Y-87159618D01*
X152163757Y-87200500D01*
X152163759Y-87200500D01*
X152386241Y-87200500D01*
X152386243Y-87200500D01*
X152604940Y-87159618D01*
X152812401Y-87079247D01*
X153001562Y-86962124D01*
X153165981Y-86812236D01*
X153300058Y-86634689D01*
X153399229Y-86435528D01*
X153460115Y-86221536D01*
X153480643Y-86000000D01*
X153460115Y-85778464D01*
X153399229Y-85564472D01*
X153399224Y-85564461D01*
X153300061Y-85365316D01*
X153300056Y-85365308D01*
X153165979Y-85187761D01*
X153001562Y-85037876D01*
X153001560Y-85037874D01*
X152812404Y-84920754D01*
X152812398Y-84920752D01*
X152604940Y-84840382D01*
X152386243Y-84799500D01*
X152163757Y-84799500D01*
X151945060Y-84840382D01*
X151813864Y-84891207D01*
X151737601Y-84920752D01*
X151737595Y-84920754D01*
X151548439Y-85037874D01*
X151548437Y-85037876D01*
X151384020Y-85187761D01*
X151249943Y-85365308D01*
X151249938Y-85365316D01*
X151150775Y-85564461D01*
X151150769Y-85564476D01*
X151089885Y-85778462D01*
X151089884Y-85778464D01*
X151069356Y-85999999D01*
X151069356Y-86000000D01*
X148400643Y-86000000D01*
X148380115Y-85778464D01*
X148319229Y-85564472D01*
X148319224Y-85564461D01*
X148220061Y-85365316D01*
X148220056Y-85365308D01*
X148085979Y-85187761D01*
X147921562Y-85037876D01*
X147921560Y-85037874D01*
X147732404Y-84920754D01*
X147732398Y-84920752D01*
X147524940Y-84840382D01*
X147306243Y-84799500D01*
X147083757Y-84799500D01*
X146865060Y-84840382D01*
X146733864Y-84891207D01*
X146657601Y-84920752D01*
X146657595Y-84920754D01*
X146468439Y-85037874D01*
X146468437Y-85037876D01*
X146304020Y-85187761D01*
X146169943Y-85365308D01*
X146169938Y-85365316D01*
X146070775Y-85564461D01*
X146070769Y-85564476D01*
X146009885Y-85778462D01*
X146009884Y-85778464D01*
X145989356Y-85999999D01*
X145989356Y-86000000D01*
X145264464Y-86000000D01*
X145195047Y-85900861D01*
X145195045Y-85900858D01*
X145034141Y-85739954D01*
X144847734Y-85609432D01*
X144847728Y-85609429D01*
X144789725Y-85582382D01*
X144737285Y-85536210D01*
X144718133Y-85469017D01*
X144738348Y-85402135D01*
X144789725Y-85357618D01*
X144790643Y-85357190D01*
X144847734Y-85330568D01*
X145034139Y-85200047D01*
X145195047Y-85039139D01*
X145325568Y-84852734D01*
X145421739Y-84646496D01*
X145480635Y-84426692D01*
X145500468Y-84200000D01*
X145480635Y-83973308D01*
X145427067Y-83773389D01*
X145421741Y-83753511D01*
X145421738Y-83753502D01*
X145383900Y-83672359D01*
X145325568Y-83547266D01*
X145195047Y-83360861D01*
X145195045Y-83360858D01*
X145034141Y-83199954D01*
X144847734Y-83069432D01*
X144847732Y-83069431D01*
X144641497Y-82973261D01*
X144641488Y-82973258D01*
X144421697Y-82914366D01*
X144421687Y-82914364D01*
X144251785Y-82899500D01*
X144251784Y-82899500D01*
X143338216Y-82899500D01*
X143338215Y-82899500D01*
X143168312Y-82914364D01*
X143168302Y-82914366D01*
X142948511Y-82973258D01*
X142948502Y-82973261D01*
X142742267Y-83069431D01*
X142742265Y-83069432D01*
X142555858Y-83199954D01*
X142394954Y-83360858D01*
X142264432Y-83547265D01*
X142264431Y-83547267D01*
X142168261Y-83753502D01*
X142168259Y-83753509D01*
X142160791Y-83781381D01*
X142124425Y-83841042D01*
X142061578Y-83871570D01*
X141992202Y-83863275D01*
X141953335Y-83836968D01*
X141408994Y-83292627D01*
X140786819Y-82670451D01*
X140753334Y-82609128D01*
X140750500Y-82582770D01*
X140750500Y-80947870D01*
X147059500Y-80947870D01*
X147059501Y-80947876D01*
X147065908Y-81007483D01*
X147116202Y-81142328D01*
X147116206Y-81142335D01*
X147202452Y-81257544D01*
X147202455Y-81257547D01*
X147317664Y-81343793D01*
X147317671Y-81343797D01*
X147452517Y-81394091D01*
X147452516Y-81394091D01*
X147459444Y-81394835D01*
X147512127Y-81400500D01*
X149407872Y-81400499D01*
X149467483Y-81394091D01*
X149602331Y-81343796D01*
X149717546Y-81257546D01*
X149803796Y-81142331D01*
X149832454Y-81065493D01*
X149874326Y-81009559D01*
X149939790Y-80985141D01*
X150008063Y-80999992D01*
X150039866Y-81024843D01*
X150047302Y-81032920D01*
X150048215Y-81033912D01*
X150048222Y-81033918D01*
X150231365Y-81176464D01*
X150231371Y-81176468D01*
X150231374Y-81176470D01*
X150435497Y-81286936D01*
X150549487Y-81326068D01*
X150655015Y-81362297D01*
X150655017Y-81362297D01*
X150655019Y-81362298D01*
X150883951Y-81400500D01*
X150883952Y-81400500D01*
X151116048Y-81400500D01*
X151116049Y-81400500D01*
X151344981Y-81362298D01*
X151564503Y-81286936D01*
X151768626Y-81176470D01*
X151951784Y-81033913D01*
X152108979Y-80863153D01*
X152235924Y-80668849D01*
X152329157Y-80456300D01*
X152386134Y-80231305D01*
X152405300Y-80000000D01*
X152405300Y-79999993D01*
X152386135Y-79768702D01*
X152386133Y-79768691D01*
X152329157Y-79543699D01*
X152235924Y-79331151D01*
X152108983Y-79136852D01*
X152108980Y-79136849D01*
X152108979Y-79136847D01*
X151951784Y-78966087D01*
X151951779Y-78966083D01*
X151951777Y-78966081D01*
X151768634Y-78823535D01*
X151768628Y-78823531D01*
X151564504Y-78713064D01*
X151564495Y-78713061D01*
X151344984Y-78637702D01*
X151154450Y-78605908D01*
X151116049Y-78599500D01*
X150883951Y-78599500D01*
X150845550Y-78605908D01*
X150655015Y-78637702D01*
X150435504Y-78713061D01*
X150435495Y-78713064D01*
X150231371Y-78823531D01*
X150231365Y-78823535D01*
X150048222Y-78966081D01*
X150048218Y-78966085D01*
X150039866Y-78975158D01*
X149979979Y-79011148D01*
X149910141Y-79009047D01*
X149852525Y-78969522D01*
X149832455Y-78934507D01*
X149803797Y-78857671D01*
X149803793Y-78857664D01*
X149717547Y-78742455D01*
X149717544Y-78742452D01*
X149602335Y-78656206D01*
X149602328Y-78656202D01*
X149467482Y-78605908D01*
X149467483Y-78605908D01*
X149407883Y-78599501D01*
X149407881Y-78599500D01*
X149407873Y-78599500D01*
X149407864Y-78599500D01*
X147512129Y-78599500D01*
X147512123Y-78599501D01*
X147452516Y-78605908D01*
X147317671Y-78656202D01*
X147317664Y-78656206D01*
X147202455Y-78742452D01*
X147202452Y-78742455D01*
X147116206Y-78857664D01*
X147116202Y-78857671D01*
X147065908Y-78992517D01*
X147059501Y-79052116D01*
X147059500Y-79052135D01*
X147059500Y-80947870D01*
X140750500Y-80947870D01*
X140750500Y-79995052D01*
X140770185Y-79928013D01*
X140790957Y-79903418D01*
X140890981Y-79812236D01*
X141025058Y-79634689D01*
X141124229Y-79435528D01*
X141185115Y-79221536D01*
X141205643Y-79000000D01*
X143874357Y-79000000D01*
X143894884Y-79221535D01*
X143894885Y-79221537D01*
X143955769Y-79435523D01*
X143955775Y-79435538D01*
X144054938Y-79634683D01*
X144054943Y-79634691D01*
X144189020Y-79812238D01*
X144353437Y-79962123D01*
X144353439Y-79962125D01*
X144542595Y-80079245D01*
X144542596Y-80079245D01*
X144542599Y-80079247D01*
X144750060Y-80159618D01*
X144968757Y-80200500D01*
X144968759Y-80200500D01*
X145191241Y-80200500D01*
X145191243Y-80200500D01*
X145409940Y-80159618D01*
X145617401Y-80079247D01*
X145806562Y-79962124D01*
X145970981Y-79812236D01*
X146105058Y-79634689D01*
X146204229Y-79435528D01*
X146265115Y-79221536D01*
X146285643Y-79000000D01*
X146272454Y-78857671D01*
X146265115Y-78778464D01*
X146265114Y-78778462D01*
X146254869Y-78742455D01*
X146204229Y-78564472D01*
X146204224Y-78564461D01*
X146105061Y-78365316D01*
X146105056Y-78365308D01*
X145970979Y-78187761D01*
X145806562Y-78037876D01*
X145806560Y-78037874D01*
X145617404Y-77920754D01*
X145617398Y-77920752D01*
X145409940Y-77840382D01*
X145191243Y-77799500D01*
X144968757Y-77799500D01*
X144750060Y-77840382D01*
X144618864Y-77891207D01*
X144542601Y-77920752D01*
X144542595Y-77920754D01*
X144353439Y-78037874D01*
X144353437Y-78037876D01*
X144189020Y-78187761D01*
X144054943Y-78365308D01*
X144054938Y-78365316D01*
X143955775Y-78564461D01*
X143955769Y-78564476D01*
X143894885Y-78778462D01*
X143894884Y-78778464D01*
X143874357Y-78999999D01*
X143874357Y-79000000D01*
X141205643Y-79000000D01*
X141192454Y-78857671D01*
X141185115Y-78778464D01*
X141185114Y-78778462D01*
X141174869Y-78742455D01*
X141124229Y-78564472D01*
X141124224Y-78564461D01*
X141025061Y-78365316D01*
X141025056Y-78365308D01*
X140890979Y-78187761D01*
X140726562Y-78037876D01*
X140726560Y-78037874D01*
X140537404Y-77920754D01*
X140537398Y-77920752D01*
X140329940Y-77840382D01*
X140111243Y-77799500D01*
X139888757Y-77799500D01*
X139670060Y-77840382D01*
X139538864Y-77891207D01*
X139462601Y-77920752D01*
X139462595Y-77920754D01*
X139273439Y-78037874D01*
X139273437Y-78037876D01*
X139109020Y-78187761D01*
X138974943Y-78365308D01*
X138974938Y-78365316D01*
X138921000Y-78473639D01*
X138873497Y-78524876D01*
X138805834Y-78542297D01*
X138739494Y-78520371D01*
X138699000Y-78473639D01*
X138645061Y-78365316D01*
X138645056Y-78365308D01*
X138510979Y-78187761D01*
X138346562Y-78037876D01*
X138346560Y-78037874D01*
X138157404Y-77920754D01*
X138157398Y-77920752D01*
X137949940Y-77840382D01*
X137731243Y-77799500D01*
X137508757Y-77799500D01*
X137290060Y-77840382D01*
X137158864Y-77891207D01*
X137082601Y-77920752D01*
X137082595Y-77920754D01*
X136893439Y-78037874D01*
X136893437Y-78037876D01*
X136729020Y-78187761D01*
X136594943Y-78365308D01*
X136594938Y-78365316D01*
X136495775Y-78564461D01*
X136495769Y-78564476D01*
X136434885Y-78778462D01*
X136434884Y-78778464D01*
X136414357Y-78999999D01*
X136414357Y-79000000D01*
X136434884Y-79221535D01*
X136434885Y-79221537D01*
X136495769Y-79435523D01*
X136495775Y-79435538D01*
X136594938Y-79634683D01*
X136594943Y-79634691D01*
X136729020Y-79812238D01*
X136893437Y-79962123D01*
X136893439Y-79962125D01*
X137082595Y-80079245D01*
X137082596Y-80079245D01*
X137082599Y-80079247D01*
X137290060Y-80159618D01*
X137508757Y-80200500D01*
X137508759Y-80200500D01*
X137731241Y-80200500D01*
X137731243Y-80200500D01*
X137949940Y-80159618D01*
X138157401Y-80079247D01*
X138346562Y-79962124D01*
X138510981Y-79812236D01*
X138645058Y-79634689D01*
X138645061Y-79634683D01*
X138699000Y-79526360D01*
X138746503Y-79475123D01*
X138814166Y-79457702D01*
X138880506Y-79479628D01*
X138921000Y-79526360D01*
X138974938Y-79634683D01*
X138974943Y-79634691D01*
X139041980Y-79723462D01*
X139109019Y-79812236D01*
X139209039Y-79903416D01*
X139245319Y-79963126D01*
X139249500Y-79995052D01*
X139249500Y-82881294D01*
X139248191Y-82899263D01*
X139244710Y-82923025D01*
X139249264Y-82975064D01*
X139249500Y-82980470D01*
X139249500Y-82988712D01*
X139253202Y-83020391D01*
X139253386Y-83022185D01*
X139260000Y-83097792D01*
X139261461Y-83104867D01*
X139261403Y-83104878D01*
X139263034Y-83112237D01*
X139263092Y-83112224D01*
X139264757Y-83119249D01*
X139264758Y-83119254D01*
X139264759Y-83119255D01*
X139278826Y-83157906D01*
X139290708Y-83190551D01*
X139291299Y-83192253D01*
X139315182Y-83264326D01*
X139318236Y-83270874D01*
X139318182Y-83270898D01*
X139321470Y-83277688D01*
X139321521Y-83277663D01*
X139324761Y-83284113D01*
X139324762Y-83284114D01*
X139324763Y-83284117D01*
X139366494Y-83347567D01*
X139367443Y-83349058D01*
X139407289Y-83413657D01*
X139411766Y-83419319D01*
X139411719Y-83419356D01*
X139416482Y-83425202D01*
X139416528Y-83425164D01*
X139421173Y-83430699D01*
X139476364Y-83482769D01*
X139477658Y-83484026D01*
X140834014Y-84840382D01*
X142144670Y-86151037D01*
X142178155Y-86212360D01*
X142173171Y-86282052D01*
X142169377Y-86291111D01*
X142168258Y-86293510D01*
X142160790Y-86321381D01*
X142124424Y-86381041D01*
X142061577Y-86411569D01*
X141992202Y-86403274D01*
X141953335Y-86376967D01*
X141830729Y-86254361D01*
X141818949Y-86240730D01*
X141804660Y-86221537D01*
X141804612Y-86221472D01*
X141793753Y-86212360D01*
X141764587Y-86187886D01*
X141760612Y-86184244D01*
X141757690Y-86181322D01*
X141754779Y-86178410D01*
X141729736Y-86158609D01*
X141728338Y-86157470D01*
X141720671Y-86151037D01*
X141670214Y-86108698D01*
X141664180Y-86104729D01*
X141664212Y-86104680D01*
X141657853Y-86100628D01*
X141657822Y-86100679D01*
X141651680Y-86096891D01*
X141651678Y-86096890D01*
X141651677Y-86096889D01*
X141582872Y-86064804D01*
X141581252Y-86064019D01*
X141541512Y-86044061D01*
X141513433Y-86029960D01*
X141513431Y-86029959D01*
X141513430Y-86029959D01*
X141506645Y-86027489D01*
X141506665Y-86027433D01*
X141499549Y-86024959D01*
X141499531Y-86025015D01*
X141492674Y-86022743D01*
X141418328Y-86007391D01*
X141416569Y-86007001D01*
X141342718Y-85989499D01*
X141335547Y-85988661D01*
X141335553Y-85988601D01*
X141328055Y-85987835D01*
X141328050Y-85987895D01*
X141320860Y-85987265D01*
X141244968Y-85989474D01*
X141243165Y-85989500D01*
X137701663Y-85989500D01*
X137634624Y-85969815D01*
X137600088Y-85936623D01*
X137575045Y-85900858D01*
X137414143Y-85739956D01*
X137388912Y-85722289D01*
X137345287Y-85667712D01*
X137338095Y-85598213D01*
X137369617Y-85535859D01*
X137429847Y-85500445D01*
X137446781Y-85497424D01*
X137482380Y-85493596D01*
X137617086Y-85443354D01*
X137617093Y-85443350D01*
X137732187Y-85357190D01*
X137732190Y-85357187D01*
X137818350Y-85242093D01*
X137818354Y-85242086D01*
X137868596Y-85107379D01*
X137868598Y-85107372D01*
X137874999Y-85047844D01*
X137875000Y-85047827D01*
X137875000Y-84450000D01*
X136490686Y-84450000D01*
X136502641Y-84438045D01*
X136560165Y-84325148D01*
X136579986Y-84200000D01*
X136560165Y-84074852D01*
X136502641Y-83961955D01*
X136490686Y-83950000D01*
X137875000Y-83950000D01*
X137875000Y-83352172D01*
X137874999Y-83352155D01*
X137868598Y-83292627D01*
X137868596Y-83292620D01*
X137818354Y-83157913D01*
X137818350Y-83157906D01*
X137732190Y-83042812D01*
X137732187Y-83042809D01*
X137617093Y-82956649D01*
X137617086Y-82956645D01*
X137482379Y-82906403D01*
X137482372Y-82906401D01*
X137422844Y-82900000D01*
X136425000Y-82900000D01*
X136425000Y-83884314D01*
X136413045Y-83872359D01*
X136300148Y-83814835D01*
X136206481Y-83800000D01*
X136143519Y-83800000D01*
X136049852Y-83814835D01*
X135936955Y-83872359D01*
X135925000Y-83884314D01*
X135925000Y-82900000D01*
X134927155Y-82900000D01*
X134867627Y-82906401D01*
X134867620Y-82906403D01*
X134732913Y-82956645D01*
X134732906Y-82956649D01*
X134617812Y-83042809D01*
X134617809Y-83042812D01*
X134531649Y-83157906D01*
X134531645Y-83157913D01*
X134481403Y-83292620D01*
X134481401Y-83292627D01*
X134475000Y-83352155D01*
X134475000Y-83950000D01*
X135859314Y-83950000D01*
X135847359Y-83961955D01*
X135789835Y-84074852D01*
X135770014Y-84200000D01*
X135789835Y-84325148D01*
X135847359Y-84438045D01*
X135859314Y-84450000D01*
X134475000Y-84450000D01*
X134475000Y-85047844D01*
X134481401Y-85107372D01*
X134481403Y-85107379D01*
X134531645Y-85242086D01*
X134531649Y-85242093D01*
X134617809Y-85357187D01*
X134617812Y-85357190D01*
X134732906Y-85443350D01*
X134732913Y-85443354D01*
X134867620Y-85493596D01*
X134867627Y-85493598D01*
X134903218Y-85497425D01*
X134967769Y-85524163D01*
X135007618Y-85581555D01*
X135010111Y-85651380D01*
X134974459Y-85711469D01*
X134961088Y-85722287D01*
X134935861Y-85739951D01*
X134774954Y-85900858D01*
X134644432Y-86087265D01*
X134644431Y-86087267D01*
X134548261Y-86293502D01*
X134548258Y-86293511D01*
X134489366Y-86513302D01*
X134489364Y-86513313D01*
X134469532Y-86739998D01*
X134469532Y-86740001D01*
X134489364Y-86966686D01*
X134489366Y-86966697D01*
X134531356Y-87123407D01*
X134529693Y-87193257D01*
X134490530Y-87251119D01*
X134426302Y-87278623D01*
X134411581Y-87279500D01*
X133892229Y-87279500D01*
X133825190Y-87259815D01*
X133804548Y-87243181D01*
X133326716Y-86765348D01*
X133293231Y-86704025D01*
X133290869Y-86666863D01*
X133305468Y-86500000D01*
X133285635Y-86273308D01*
X133240465Y-86104729D01*
X133226741Y-86053511D01*
X133226738Y-86053502D01*
X133205054Y-86007001D01*
X133130568Y-85847266D01*
X133000047Y-85660861D01*
X133000045Y-85660858D01*
X132839141Y-85499954D01*
X132652734Y-85369432D01*
X132652730Y-85369430D01*
X132637022Y-85362105D01*
X132584583Y-85315931D01*
X132565433Y-85248737D01*
X132585650Y-85181857D01*
X132637028Y-85137340D01*
X132652481Y-85130134D01*
X132725472Y-85079025D01*
X132044401Y-84397953D01*
X132125148Y-84385165D01*
X132238045Y-84327641D01*
X132327641Y-84238045D01*
X132385165Y-84125148D01*
X132397953Y-84044399D01*
X133079025Y-84725472D01*
X133130136Y-84652478D01*
X133226264Y-84446331D01*
X133226269Y-84446317D01*
X133285139Y-84226610D01*
X133285141Y-84226599D01*
X133304966Y-84000002D01*
X133304966Y-83999997D01*
X133285141Y-83773400D01*
X133285139Y-83773389D01*
X133226269Y-83553682D01*
X133226265Y-83553673D01*
X133130133Y-83347516D01*
X133130131Y-83347512D01*
X133079026Y-83274526D01*
X133079025Y-83274526D01*
X132397953Y-83955597D01*
X132385165Y-83874852D01*
X132327641Y-83761955D01*
X132238045Y-83672359D01*
X132125148Y-83614835D01*
X132044400Y-83602046D01*
X132725472Y-82920974D01*
X132725471Y-82920973D01*
X132652483Y-82869866D01*
X132652481Y-82869865D01*
X132446326Y-82773734D01*
X132446317Y-82773730D01*
X132226610Y-82714860D01*
X132226599Y-82714858D01*
X132000002Y-82695034D01*
X131999998Y-82695034D01*
X131773400Y-82714858D01*
X131773389Y-82714860D01*
X131553682Y-82773730D01*
X131553673Y-82773734D01*
X131347513Y-82869868D01*
X131274527Y-82920972D01*
X131274526Y-82920973D01*
X131955600Y-83602046D01*
X131874852Y-83614835D01*
X131761955Y-83672359D01*
X131672359Y-83761955D01*
X131614835Y-83874852D01*
X131602046Y-83955599D01*
X130920973Y-83274526D01*
X130920972Y-83274527D01*
X130869868Y-83347513D01*
X130773734Y-83553673D01*
X130773730Y-83553682D01*
X130714860Y-83773389D01*
X130714858Y-83773400D01*
X130695034Y-83999997D01*
X130695034Y-84000002D01*
X130714858Y-84226599D01*
X130714860Y-84226610D01*
X130773730Y-84446317D01*
X130773734Y-84446326D01*
X130869865Y-84652481D01*
X130869866Y-84652483D01*
X130920973Y-84725471D01*
X130920974Y-84725472D01*
X131602046Y-84044399D01*
X131614835Y-84125148D01*
X131672359Y-84238045D01*
X131761955Y-84327641D01*
X131874852Y-84385165D01*
X131955599Y-84397953D01*
X131274526Y-85079025D01*
X131274526Y-85079026D01*
X131347512Y-85130131D01*
X131347515Y-85130132D01*
X131362974Y-85137341D01*
X131415414Y-85183513D01*
X131434567Y-85250706D01*
X131414352Y-85317587D01*
X131362978Y-85362105D01*
X131347269Y-85369430D01*
X131347265Y-85369432D01*
X131160858Y-85499954D01*
X130999954Y-85660858D01*
X130869432Y-85847265D01*
X130869431Y-85847267D01*
X130773261Y-86053502D01*
X130773258Y-86053511D01*
X130714366Y-86273302D01*
X130714364Y-86273313D01*
X130694532Y-86499998D01*
X130694532Y-86500001D01*
X129000500Y-86500001D01*
X129000500Y-79000000D01*
X131334357Y-79000000D01*
X131354884Y-79221535D01*
X131354885Y-79221537D01*
X131415769Y-79435523D01*
X131415775Y-79435538D01*
X131514938Y-79634683D01*
X131514943Y-79634691D01*
X131649020Y-79812238D01*
X131813437Y-79962123D01*
X131813439Y-79962125D01*
X132002595Y-80079245D01*
X132002596Y-80079245D01*
X132002599Y-80079247D01*
X132210060Y-80159618D01*
X132428757Y-80200500D01*
X132428759Y-80200500D01*
X132651241Y-80200500D01*
X132651243Y-80200500D01*
X132869940Y-80159618D01*
X133077401Y-80079247D01*
X133266562Y-79962124D01*
X133430981Y-79812236D01*
X133565058Y-79634689D01*
X133664229Y-79435528D01*
X133725115Y-79221536D01*
X133745643Y-79000000D01*
X133732454Y-78857671D01*
X133725115Y-78778464D01*
X133725114Y-78778462D01*
X133714869Y-78742455D01*
X133664229Y-78564472D01*
X133664224Y-78564461D01*
X133565061Y-78365316D01*
X133565056Y-78365308D01*
X133430979Y-78187761D01*
X133266562Y-78037876D01*
X133266560Y-78037874D01*
X133077404Y-77920754D01*
X133077398Y-77920752D01*
X132869940Y-77840382D01*
X132651243Y-77799500D01*
X132428757Y-77799500D01*
X132210060Y-77840382D01*
X132078864Y-77891207D01*
X132002601Y-77920752D01*
X132002595Y-77920754D01*
X131813439Y-78037874D01*
X131813437Y-78037876D01*
X131649020Y-78187761D01*
X131514943Y-78365308D01*
X131514938Y-78365316D01*
X131415775Y-78564461D01*
X131415769Y-78564476D01*
X131354885Y-78778462D01*
X131354884Y-78778464D01*
X131334357Y-78999999D01*
X131334357Y-79000000D01*
X129000500Y-79000000D01*
X129000500Y-76124500D01*
X129020185Y-76057461D01*
X129072989Y-76011706D01*
X129124500Y-76000500D01*
X153875500Y-76000500D01*
X153942539Y-76020185D01*
G37*
%TD.AperFunction*%
%TD*%
M02*
