M48
; DRILL file {KiCad 7.0.5-1.fc38} date Cts 17 Haz 2023 15:26:16
; FORMAT={-:-/ absolute / inch / decimal}
; #@! TF.CreationDate,2023-06-17T15:26:16+03:00
; #@! TF.GenerationSoftware,Kicad,Pcbnew,7.0.5-1.fc38
; #@! TF.FileFunction,Plated,1,2,PTH
FMAT,2
INCH
; #@! TA.AperFunction,Plated,PTH,ComponentDrill
T1C0.0276
; #@! TA.AperFunction,Plated,PTH,ComponentDrill
T2C0.0315
; #@! TA.AperFunction,Plated,PTH,ComponentDrill
T3C0.0354
; #@! TA.AperFunction,Plated,PTH,ComponentDrill
T4C0.0469
%
G90
G05
T1
X5.2181Y-3.1102
X5.4181Y-3.1102
X5.5118Y-3.1102
X5.7118Y-3.1102
X5.7951Y-3.3858
X5.7951Y-3.5827
X5.9951Y-3.3858
X5.9951Y-3.5827
T2
X5.1969Y-3.3071
X5.1969Y-3.4055
X5.3612Y-3.315
X5.3612Y-3.415
X5.3612Y-3.515
X5.3612Y-3.615
X5.5512Y-3.8976
X5.6496Y-3.8976
X5.6612Y-3.315
X5.6612Y-3.415
X5.6612Y-3.515
X5.6612Y-3.615
T3
X5.8449Y-3.1496
X5.8453Y-3.8583
X5.9449Y-3.1496
X5.9453Y-3.8583
T4
X5.1969Y-3.8583
X5.2969Y-3.8583
T0
M30
